<?xml version="1.0" encoding="UTF-8" standalone="no"?>
<svg
   width="152.81247"
   height="54.119011"
   viewBox="0 0 152.81247 54.119011"
   version="1.1"
   id="svg5"
   xmlns="http://www.w3.org/2000/svg"
   xmlns:svg="http://www.w3.org/2000/svg">
  <defs
     id="defs5" />
  <title
     id="title1">Beloved and Blooming logo</title>
  <desc
     id="desc1">A sprouting plant icon with a small blush bud above the brand name &quot;beloved &amp; blooming&quot; set in a warm serif font, on a pastel sage background.</desc>
  <path
     d="M 11.291076,46.466062 V 12.068092"
     stroke="#4a7043"
     stroke-width="2.67063"
     stroke-linecap="round"
     fill="none"
     id="path1" />
  <path
     d="M 11.291076,31.982702 C 2.6010458,30.534372 -1.3818642,23.292692 0.42855587,14.964762 9.1185758,16.775182 13.463576,24.378942 11.291076,31.982702 Z"
     fill="#5c8a52"
     id="path2"
     style="stroke-width:0.362084" />
  <path
     d="m 11.291076,34.879372 c 8.69002,-1.44833 12.67293,-8.69001 10.86251,-17.01794 -8.69001,1.81043 -13.0350102,9.41419 -10.86251,17.01794 z"
     fill="#4a7043"
     id="path3"
     style="stroke-width:0.362084" />
  <path
     id="circle3"
     style="fill:#e8b4b8;stroke-width:0.931366"
     d="m 19.673396,9.5335118 a 8.3823137,8.3823137 0 0 1 -8.38232,8.3823202 8.3823137,8.3823137 0 0 1 -8.3823102,-8.3823202 8.3823137,8.3823137 0 0 1 8.3823102,-8.38231 8.3823137,8.3823137 0 0 1 8.38232,8.38231 z" />
  <path
     id="circle4"
     style="fill:#f7e4c7;stroke-width:1.23984"
     d="m 15.630506,9.5335118 a 4.3394232,4.3394232 0 0 1 -4.33943,4.3394302 4.3394232,4.3394232 0 0 1 -4.3394202,-4.3394302 4.3394232,4.3394232 0 0 1 4.3394202,-4.33942 4.3394232,4.3394232 0 0 1 4.33943,4.33942 z" />
  <g
     id="text4"
     style="font-size:30px;line-height:0.8;font-family:Georgia, 'Times New Roman', serif;fill:#3f5c38"
     aria-label="Beloved &amp;&#10;Blooming"
     transform="translate(-307.20255,-126.4405)">
    <path
       style="font-weight:600;font-family:Fraunces;-inkscape-font-specification:'Fraunces Semi-Bold'"
       d="m 352.57,143.6455 q 0,2.25 -1.875,3.66 -1.86,1.395 -5.46,1.395 H 335.17 q -0.075,0 -0.12,-0.03 -0.03,-0.03 -0.03,-0.06 0,-0.09 0.18,-0.12 l 1.215,-0.18 q 0.315,-0.06 0.45,-0.195 0.135,-0.135 0.135,-0.42 v -19.185 q 0,-0.18 -0.12,-0.27 -0.105,-0.09 -0.465,-0.15 l -1.215,-0.18 q -0.18,-0.03 -0.18,-0.12 0,-0.03 0.03,-0.06 0.045,-0.03 0.12,-0.03 h 7.32 q 2.865,0 4.845,0.765 1.995,0.75 3.015,2.085 1.02,1.335 1.02,3.09 0,1.47 -0.81,2.625 -0.795,1.14 -2.31,1.8 -1.5,0.645 -3.6,0.645 l 0.645,-0.09 q 2.145,0 3.78,0.66 1.65,0.645 2.565,1.785 0.93,1.125 0.93,2.58 z m -8.94,-4.785 h -2.91 v -0.3 h 3.105 q 1.275,0 2.13,-0.54 0.855,-0.54 1.275,-1.59 0.435,-1.05 0.435,-2.55 0,-1.77 -0.69,-3.09 -0.675,-1.335 -1.86,-2.07 -1.185,-0.735 -2.7,-0.735 h -1.305 v 19.815 q 0,0.33 0.21,0.48 0.225,0.135 0.615,0.135 h 2.265 q 1.32,0 2.28,-0.6 0.96,-0.615 1.47,-1.695 0.51,-1.095 0.51,-2.535 0,-2.175 -1.245,-3.45 -1.23,-1.275 -3.585,-1.275 z m 22.37998,2.085 q 0,0.135 -0.09,0.21 -0.075,0.075 -0.255,0.075 h -9.285 v -0.255 h 5.805 q 0.255,0 0.255,-0.285 0,-2.67 -0.72,-3.945 -0.705,-1.275 -1.725,-1.275 -0.84,0 -1.455,0.585 -0.615,0.57 -0.96,1.755 -0.33,1.185 -0.33,3.015 0,3.09 1.29,4.635 1.29,1.545 3.39,1.545 1.545,0 2.61,-0.855 1.08,-0.87 1.2,-2.34 0.015,-0.06 0.045,-0.075 0.03,-0.03 0.045,-0.03 0.03,0 0.06,0.03 0.03,0.03 0.03,0.105 -0.09,1.485 -0.87,2.655 -0.765,1.155 -2.04,1.83 -1.26,0.675 -2.835,0.675 -1.86,0 -3.27,-0.825 -1.395,-0.825 -2.19,-2.31 -0.795,-1.5 -0.795,-3.495 0,-2.13 0.795,-3.735 0.81,-1.605 2.28,-2.505 1.47,-0.9 3.435,-0.9 1.695,0 2.94,0.75 1.26,0.735 1.95,2.025 0.69,1.29 0.69,2.94 z m 6.10501,-14.34 v 21.27 q 0,0.195 0.075,0.315 0.09,0.12 0.285,0.15 l 0.825,0.15 q 0.09,0 0.12,0.045 0.03,0.03 0.03,0.075 0,0.03 -0.03,0.06 -0.03,0.03 -0.09,0.03 h -6.045 q -0.045,0 -0.09,-0.03 -0.03,-0.03 -0.03,-0.06 0,-0.045 0.045,-0.075 0.045,-0.045 0.15,-0.06 l 0.81,-0.135 q 0.195,-0.03 0.27,-0.15 0.09,-0.12 0.09,-0.3 v -19.785 q 0,-0.09 -0.045,-0.135 -0.045,-0.06 -0.15,-0.06 h -0.975 q -0.075,0 -0.105,-0.03 -0.03,-0.03 -0.03,-0.075 0,-0.06 0.03,-0.075 0.045,-0.03 0.09,-0.045 l 4.305,-1.2 q 0.135,-0.03 0.18,-0.03 0.06,-0.015 0.12,-0.015 0.075,0 0.12,0.045 0.045,0.045 0.045,0.12 z m 9.30002,8.625 q 1.98,0 3.51,0.885 1.53,0.885 2.4,2.46 0.87,1.56 0.87,3.6 0,2.01 -0.9,3.555 -0.885,1.53 -2.46,2.4 -1.575,0.87 -3.6,0.87 -1.98,0 -3.51,-0.855 -1.515,-0.87 -2.385,-2.4 -0.855,-1.545 -0.855,-3.57 0,-2.025 0.885,-3.585 0.885,-1.56 2.445,-2.46 1.575,-0.9 3.6,-0.9 z m 0.735,13.515 q 0.93,-0.09 1.515,-0.9 0.6,-0.81 0.795,-2.325 0.21,-1.515 -0.045,-3.705 -0.255,-2.22 -0.795,-3.645 -0.54,-1.44 -1.32,-2.1 -0.78,-0.675 -1.755,-0.57 -0.96,0.09 -1.545,0.915 -0.585,0.825 -0.765,2.34 -0.18,1.515 0.075,3.675 0.255,2.175 0.795,3.615 0.555,1.425 1.335,2.115 0.78,0.675 1.71,0.585 z m 13.72501,-0.015 h -1.47 q -0.105,0 -0.195,-0.045 -0.075,-0.06 -0.12,-0.165 l -4.5,-11.955 q -0.09,-0.27 -0.24,-0.45 -0.135,-0.18 -0.36,-0.225 l -0.615,-0.135 q -0.105,-0.03 -0.135,-0.045 -0.045,-0.03 -0.045,-0.075 0,-0.06 0.03,-0.075 0.03,-0.03 0.075,-0.03 h 6.735 q 0.135,0 0.135,0.105 0,0.045 -0.045,0.075 -0.03,0.015 -0.12,0.045 l -0.735,0.135 q -0.75,0.15 -0.9,0.375 -0.15,0.21 0,0.645 l 3.435,9.315 -0.675,1.365 3.615,-10.275 q 0.21,-0.6 0,-0.945 -0.195,-0.36 -0.87,-0.48 l -0.795,-0.135 q -0.09,-0.03 -0.135,-0.045 -0.03,-0.03 -0.03,-0.075 0,-0.06 0.03,-0.075 0.045,-0.03 0.105,-0.03 h 3.84 q 0.06,0 0.09,0.03 0.03,0.015 0.03,0.075 0,0.045 -0.045,0.075 -0.045,0.015 -0.15,0.045 l -0.495,0.105 q -0.42,0.105 -0.69,0.42 -0.27,0.315 -0.495,0.975 l -3.975,11.28 q -0.03,0.105 -0.105,0.15 -0.075,0.045 -0.18,0.045 z m 17.85001,-7.785 q 0,0.135 -0.09,0.21 -0.075,0.075 -0.255,0.075 h -9.285 v -0.255 h 5.805 q 0.255,0 0.255,-0.285 0,-2.67 -0.72,-3.945 -0.705,-1.275 -1.725,-1.275 -0.84,0 -1.455,0.585 -0.615,0.57 -0.96,1.755 -0.33,1.185 -0.33,3.015 0,3.09 1.29,4.635 1.29,1.545 3.39,1.545 1.545,0 2.61,-0.855 1.08,-0.87 1.2,-2.34 0.015,-0.06 0.045,-0.075 0.03,-0.03 0.045,-0.03 0.03,0 0.06,0.03 0.03,0.03 0.03,0.105 -0.09,1.485 -0.87,2.655 -0.765,1.155 -2.04,1.83 -1.26,0.675 -2.835,0.675 -1.86,0 -3.27,-0.825 -1.395,-0.825 -2.19,-2.31 -0.795,-1.5 -0.795,-3.495 0,-2.13 0.795,-3.735 0.81,-1.605 2.28,-2.505 1.47,-0.9 3.435,-0.9 1.695,0 2.94,0.75 1.26,0.735 1.95,2.025 0.69,1.29 0.69,2.94 z m 10.69502,6.03 v -0.075 -18.795 q 0,-0.09 -0.045,-0.135 -0.045,-0.06 -0.15,-0.06 h -0.975 q -0.075,0 -0.105,-0.03 -0.03,-0.03 -0.03,-0.075 0,-0.06 0.03,-0.075 0.045,-0.03 0.09,-0.045 l 4.305,-1.2 q 0.135,-0.03 0.18,-0.03 0.06,-0.015 0.12,-0.015 0.075,0 0.12,0.045 0.045,0.045 0.045,0.12 v 21.27 q 0,0.195 0.075,0.315 0.09,0.12 0.285,0.15 l 0.825,0.15 q 0.09,0 0.12,0.045 0.03,0.03 0.03,0.075 0,0.03 -0.03,0.06 -0.03,0.03 -0.09,0.03 h -4.41 q -0.18,0 -0.285,-0.105 -0.105,-0.105 -0.105,-0.33 z m -9.51,-4.47 q 0,-2.25 0.84,-3.87 0.84,-1.635 2.25,-2.52 1.425,-0.885 3.15,-0.885 1.485,0 2.43,0.585 0.96,0.57 1.53,1.575 l -0.27,0.135 q -0.42,-0.84 -1.14,-1.32 -0.72,-0.495 -1.71,-0.495 -0.96,0 -1.74,0.63 -0.78,0.63 -1.245,2.055 -0.465,1.41 -0.465,3.78 0,2.085 0.39,3.42 0.405,1.335 1.095,1.98 0.705,0.645 1.605,0.645 0.75,0 1.53,-0.42 0.78,-0.42 1.5,-1.38 l 0.165,0.18 q -1.08,1.305 -2.1,1.86 -1.02,0.54 -2.28,0.54 -1.62,0 -2.88,-0.78 -1.245,-0.795 -1.95,-2.25 -0.705,-1.455 -0.705,-3.465 z m 38.20497,6.525 q 2.205,0 3.75,-0.825 1.545,-0.84 2.34,-2.46 0.81,-1.62 0.81,-3.99 0,-2.73 -0.99,-5.31 -0.975,-2.595 -2.76,-4.65 -2.025,-2.355 -4.725,-3.765 -2.685,-1.41 -5.76,-1.41 -2.955,0 -5.1,0.93 -2.145,0.93 -3.3,2.565 -1.14,1.635 -1.14,3.75 0,1.545 0.6,2.355 0.615,0.81 1.65,0.81 0.72,0 1.185,-0.48 0.465,-0.48 0.465,-1.2 0,-0.57 -0.165,-0.99 -0.15,-0.435 -0.345,-0.84 -0.18,-0.42 -0.33,-0.9 -0.15,-0.495 -0.15,-1.17 0,-1.41 0.735,-2.445 0.75,-1.035 2.22,-1.605 1.47,-0.585 3.615,-0.585 3.045,0 5.685,1.395 2.655,1.395 4.635,3.69 1.8,2.07 2.775,4.65 0.99,2.58 0.99,5.22 0,2.085 -0.585,3.465 -0.57,1.365 -1.605,2.04 -1.02,0.675 -2.415,0.675 -1.14,0 -2.1,-0.465 -0.96,-0.465 -1.95,-1.515 -0.99,-1.05 -2.25,-2.82 -0.975,-1.365 -1.635,-2.775 -0.645,-1.425 -0.975,-2.94 -0.33,-1.53 -0.33,-3.225 0,-1.785 0.63,-2.91 0.645,-1.125 1.485,-1.125 0.705,0 1.02,0.93 0.33,0.93 0.33,2.4 0,1.605 -0.465,2.7 -0.45,1.095 -1.23,1.68 -0.78,0.585 -1.755,0.675 l 0.045,0.135 q 2.01,-0.09 3.48,-0.69 1.485,-0.615 2.295,-1.71 0.81,-1.095 0.81,-2.61 0,-1.125 -0.54,-1.995 -0.54,-0.87 -1.5,-1.35 -0.945,-0.495 -2.205,-0.495 -1.83,0 -3.15,0.81 -1.32,0.81 -2.04,2.235 -0.705,1.425 -0.705,3.27 0,1.29 0.255,2.7 0.255,1.41 0.84,2.895 0.585,1.47 1.575,2.97 1.08,1.59 2.325,2.535 1.26,0.945 2.67,1.365 1.425,0.405 2.985,0.405 z m -2.13,-3 0.06,0.12 q 2.55,-1.08 3.855,-2.685 1.32,-1.62 1.32,-3.525 0,-1.215 -0.6,-1.845 -0.6,-0.63 -1.41,-0.63 -0.855,0 -1.425,0.54 -0.57,0.525 -0.57,1.23 0,0.51 0.165,0.93 0.18,0.42 0.345,0.885 0.165,0.465 0.165,1.155 0,0.495 -0.18,1.185 -0.165,0.675 -0.585,1.38 -0.42,0.69 -1.14,1.26 z m -7.935,-7.08 -0.015,-0.135 q -2.25,0.09 -3.825,0.81 -1.575,0.72 -2.385,1.95 -0.81,1.215 -0.81,2.82 0,2.1 1.395,3.375 1.395,1.26 3.93,1.26 1.56,0 2.685,-0.285 1.14,-0.27 1.98,-0.735 0.84,-0.48 1.5,-1.08 l -0.105,-0.285 q -0.57,0.45 -1.365,0.75 -0.78,0.3 -1.92,0.3 -1.95,0 -3.015,-1.185 -1.065,-1.185 -1.065,-3.33 0,-1.035 0.36,-1.965 0.36,-0.93 1.035,-1.545 0.675,-0.615 1.62,-0.72 z"
       id="path5" />
    <path
       style="font-weight:600;font-family:Fraunces;-inkscape-font-specification:'Fraunces Semi-Bold'"
       d="m 352.57,168.12451 q 0,2.25 -1.875,3.66 -1.86,1.395 -5.46,1.395 H 335.17 q -0.075,0 -0.12,-0.03 -0.03,-0.03 -0.03,-0.06 0,-0.09 0.18,-0.12 l 1.215,-0.18 q 0.315,-0.06 0.45,-0.195 0.135,-0.135 0.135,-0.42 v -19.185 q 0,-0.18 -0.12,-0.27 -0.105,-0.09 -0.465,-0.15 l -1.215,-0.18 q -0.18,-0.03 -0.18,-0.12 0,-0.03 0.03,-0.06 0.045,-0.03 0.12,-0.03 h 7.32 q 2.865,0 4.845,0.765 1.995,0.75 3.015,2.085 1.02,1.335 1.02,3.09 0,1.47 -0.81,2.625 -0.795,1.14 -2.31,1.8 -1.5,0.645 -3.6,0.645 l 0.645,-0.09 q 2.145,0 3.78,0.66 1.65,0.645 2.565,1.785 0.93,1.125 0.93,2.58 z m -8.94,-4.785 h -2.91 v -0.3 h 3.105 q 1.275,0 2.13,-0.54 0.855,-0.54 1.275,-1.59 0.435,-1.05 0.435,-2.55 0,-1.77 -0.69,-3.09 -0.675,-1.335 -1.86,-2.07 -1.185,-0.735 -2.7,-0.735 h -1.305 v 19.815 q 0,0.33 0.21,0.48 0.225,0.135 0.615,0.135 h 2.265 q 1.32,0 2.28,-0.6 0.96,-0.615 1.47,-1.695 0.51,-1.095 0.51,-2.535 0,-2.175 -1.245,-3.45 -1.23,-1.275 -3.585,-1.275 z m 15.37498,-12.255 v 21.27 q 0,0.195 0.075,0.315 0.09,0.12 0.285,0.15 l 0.825,0.15 q 0.09,0 0.12,0.045 0.03,0.03 0.03,0.075 0,0.03 -0.03,0.06 -0.03,0.03 -0.09,0.03 h -6.045 q -0.045,0 -0.09,-0.03 -0.03,-0.03 -0.03,-0.06 0,-0.045 0.045,-0.075 0.045,-0.045 0.15,-0.06 l 0.81,-0.135 q 0.195,-0.03 0.27,-0.15 0.09,-0.12 0.09,-0.3 v -19.785 q 0,-0.09 -0.045,-0.135 -0.045,-0.06 -0.15,-0.06 h -0.975 q -0.075,0 -0.105,-0.03 -0.03,-0.03 -0.03,-0.075 0,-0.06 0.03,-0.075 0.045,-0.03 0.09,-0.045 l 4.305,-1.2 q 0.135,-0.03 0.18,-0.03 0.06,-0.015 0.12,-0.015 0.075,0 0.12,0.045 0.045,0.045 0.045,0.12 z m 9.30002,8.625 q 1.98,0 3.51,0.885 1.53,0.885 2.4,2.46 0.87,1.56 0.87,3.6 0,2.01 -0.9,3.555 -0.885,1.53 -2.46,2.4 -1.575,0.87 -3.6,0.87 -1.98,0 -3.51,-0.855 -1.515,-0.87 -2.385,-2.4 -0.855,-1.545 -0.855,-3.57 0,-2.025 0.885,-3.585 0.885,-1.56 2.445,-2.46 1.575,-0.9 3.6,-0.9 z m 0.735,13.515 q 0.93,-0.09 1.515,-0.9 0.6,-0.81 0.795,-2.325 0.21,-1.515 -0.045,-3.705 -0.255,-2.22 -0.795,-3.645 -0.54,-1.44 -1.32,-2.1 -0.78,-0.675 -1.755,-0.57 -0.96,0.09 -1.545,0.915 -0.585,0.825 -0.765,2.34 -0.18,1.515 0.075,3.675 0.255,2.175 0.795,3.615 0.555,1.425 1.335,2.115 0.78,0.675 1.71,0.585 z m 14.17499,-13.515 q 1.98,0 3.51,0.885 1.53,0.885 2.4,2.46 0.87,1.56 0.87,3.6 0,2.01 -0.9,3.555 -0.885,1.53 -2.46,2.4 -1.575,0.87 -3.6,0.87 -1.98,0 -3.51,-0.855 -1.515,-0.87 -2.385,-2.4 -0.855,-1.545 -0.855,-3.57 0,-2.025 0.885,-3.585 0.885,-1.56 2.445,-2.46 1.575,-0.9 3.6,-0.9 z m 0.735,13.515 q 0.93,-0.09 1.515,-0.9 0.6,-0.81 0.795,-2.325 0.21,-1.515 -0.045,-3.705 -0.255,-2.22 -0.795,-3.645 -0.54,-1.44 -1.32,-2.1 -0.78,-0.675 -1.755,-0.57 -0.96,0.09 -1.545,0.915 -0.585,0.825 -0.765,2.34 -0.18,1.515 0.075,3.675 0.255,2.175 0.795,3.615 0.555,1.425 1.335,2.115 0.78,0.675 1.71,0.585 z m 12.08999,-13.29 v 12.435 q 0,0.165 0.09,0.3 0.105,0.135 0.285,0.18 l 0.825,0.12 q 0.135,0.03 0.135,0.12 0,0.09 -0.15,0.09 h -6 q -0.06,0 -0.105,-0.03 -0.03,-0.03 -0.03,-0.06 0,-0.045 0.045,-0.075 0.045,-0.03 0.12,-0.045 l 0.84,-0.15 q 0.195,-0.03 0.27,-0.135 0.09,-0.12 0.09,-0.27 v -10.965 q 0,-0.105 -0.045,-0.165 -0.03,-0.075 -0.15,-0.075 h -1.02 q -0.045,0 -0.075,-0.03 -0.03,-0.03 -0.03,-0.06 0,-0.045 0.03,-0.075 0.03,-0.03 0.105,-0.045 l 4.305,-1.215 q 0.12,-0.03 0.18,-0.03 0.06,-0.015 0.12,-0.015 0.09,0 0.12,0.06 0.045,0.06 0.045,0.135 z m -0.3,2.955 -0.15,-0.135 0.525,-0.495 q 1.515,-1.425 2.745,-1.98 1.245,-0.57 2.295,-0.57 1.47,0 2.4,0.915 0.945,0.915 0.945,2.85 v 8.925 q 0,0.195 0.105,0.315 0.105,0.12 0.3,0.15 l 0.6,0.105 q 0.15,0.03 0.15,0.12 0,0.09 -0.18,0.09 h -5.73 q -0.12,0 -0.12,-0.09 0,-0.09 0.15,-0.12 l 0.735,-0.105 q 0.285,-0.06 0.375,-0.24 0.09,-0.18 0.09,-0.435 v -8.325 q 0,-1.26 -0.615,-1.905 -0.615,-0.66 -1.575,-0.66 -0.69,0 -1.305,0.27 -0.615,0.255 -1.245,0.84 z m 8.385,0 -0.15,-0.135 0.48,-0.54 q 1.14,-1.305 2.19,-1.905 1.065,-0.6 2.19,-0.6 1.38,0 2.28,0.915 0.9,0.915 1.14,2.865 l 1.125,8.865 q 0.03,0.24 0.135,0.375 0.105,0.12 0.3,0.15 l 0.585,0.105 q 0.06,0.015 0.09,0.045 0.045,0.015 0.045,0.06 0,0.03 -0.045,0.06 -0.03,0.03 -0.09,0.03 h -5.94 q -0.12,0 -0.12,-0.09 0,-0.09 0.15,-0.12 l 0.735,-0.105 q 0.285,-0.06 0.39,-0.255 0.105,-0.195 0.075,-0.45 l -0.96,-8.295 q -0.15,-1.26 -0.66,-1.905 -0.51,-0.66 -1.41,-0.66 -0.555,0 -1.05,0.27 -0.495,0.255 -1.035,0.795 z m 15.86998,-2.97 v 12.435 q 0,0.195 0.075,0.315 0.09,0.12 0.285,0.15 l 0.825,0.15 q 0.09,0 0.12,0.045 0.03,0.03 0.03,0.075 0,0.03 -0.03,0.06 -0.03,0.03 -0.09,0.03 h -6.045 q -0.045,0 -0.09,-0.03 -0.03,-0.03 -0.03,-0.06 0,-0.045 0.03,-0.06 0.03,-0.03 0.12,-0.045 l 0.855,-0.165 q 0.195,-0.03 0.27,-0.15 0.09,-0.12 0.09,-0.3 v -10.965 q 0,-0.09 -0.045,-0.135 -0.045,-0.06 -0.15,-0.06 h -0.975 q -0.075,0 -0.105,-0.03 -0.03,-0.03 -0.03,-0.075 0,-0.045 0.03,-0.06 0.045,-0.03 0.09,-0.045 l 4.305,-1.2 q 0.135,-0.045 0.18,-0.045 0.06,-0.015 0.12,-0.015 0.075,0 0.12,0.06 0.045,0.045 0.045,0.12 z m -1.86,-2.07 q -0.945,0 -1.545,-0.63 -0.585,-0.63 -0.585,-1.53 0,-0.915 0.585,-1.545 0.6,-0.63 1.545,-0.63 0.945,0 1.545,0.63 0.615,0.63 0.615,1.545 0,0.9 -0.615,1.53 -0.6,0.63 -1.545,0.63 z m 8.985,2.07 v 12.435 q 0,0.195 0.075,0.315 0.09,0.12 0.285,0.15 l 0.825,0.15 q 0.15,0.03 0.15,0.12 0,0.09 -0.12,0.09 h -6.045 q -0.045,0 -0.09,-0.03 -0.03,-0.03 -0.03,-0.06 0,-0.045 0.03,-0.06 0.03,-0.03 0.12,-0.045 l 0.855,-0.165 q 0.195,-0.03 0.27,-0.15 0.09,-0.12 0.09,-0.3 v -10.965 q 0,-0.09 -0.045,-0.135 -0.045,-0.06 -0.15,-0.06 h -0.975 q -0.075,0 -0.105,-0.03 -0.03,-0.03 -0.03,-0.075 0,-0.045 0.03,-0.06 0.045,-0.03 0.09,-0.045 l 4.305,-1.2 q 0.135,-0.045 0.18,-0.045 0.06,-0.015 0.12,-0.015 0.075,0 0.12,0.06 0.045,0.045 0.045,0.12 z m -0.3,2.955 -0.15,-0.15 0.54,-0.48 q 1.485,-1.335 2.565,-1.935 1.095,-0.6 2.04,-0.6 1.38,0 2.145,0.87 0.765,0.855 0.99,2.685 l 1.125,9 q 0.03,0.24 0.12,0.39 0.105,0.15 0.33,0.195 l 0.735,0.135 q 0.075,0 0.105,0.03 0.03,0.03 0.03,0.075 0,0.03 -0.03,0.06 -0.03,0.03 -0.09,0.03 h -6.15 q -0.135,0 -0.135,-0.09 0,-0.09 0.165,-0.12 l 0.855,-0.15 q 0.24,-0.03 0.33,-0.18 0.105,-0.15 0.075,-0.375 l -0.99,-8.64 q -0.15,-1.215 -0.57,-1.77 -0.42,-0.555 -1.26,-0.555 -0.555,0 -1.095,0.285 -0.54,0.27 -1.155,0.825 z m 19.70997,9.735 q -1.71,-0.42 -2.565,-0.72 -0.855,-0.3 -1.14,-0.57 -0.285,-0.27 -0.285,-0.63 0,-0.33 0.24,-0.57 0.24,-0.255 0.57,-0.36 v -0.12 q -1.35,0.225 -2.145,0.6 -0.78,0.375 -1.125,0.9 -0.345,0.51 -0.345,1.155 0,0.735 0.45,1.215 0.45,0.495 1.515,0.885 1.08,0.39 2.91,0.795 1.62,0.345 2.49,0.72 0.885,0.375 1.215,0.84 0.345,0.465 0.345,1.08 0,0.795 -0.435,1.335 -0.42,0.555 -1.275,0.825 -0.84,0.27 -2.13,0.27 -2.4,0 -3.585,-1.095 -1.185,-1.095 -1.185,-2.865 0,-0.705 0.525,-1.245 0.525,-0.525 1.56,-0.72 l -0.03,-0.165 q -2.445,0.315 -3.495,1.08 -1.035,0.78 -1.035,2.025 0,0.96 0.735,1.695 0.735,0.735 2.295,1.155 1.56,0.435 4.065,0.435 3.27,0 5.055,-1.2 1.785,-1.2 1.785,-3.09 0,-0.975 -0.435,-1.665 -0.42,-0.675 -1.515,-1.155 -1.08,-0.48 -3.03,-0.84 z m 0.18,-12.135 0.225,-0.03 q 0.315,-0.6 0.645,-0.945 0.33,-0.36 0.765,-0.36 0.33,0 0.585,0.27 0.255,0.255 0.495,0.615 0.255,0.345 0.555,0.615 0.315,0.27 0.765,0.27 0.675,0 1.02,-0.405 0.36,-0.405 0.36,-1.11 0,-0.855 -0.54,-1.41 -0.54,-0.555 -1.515,-0.555 -1.125,0 -1.89,0.78 -0.765,0.765 -1.35,2.01 z m 3.825,4.23 q 0,-1.35 -0.72,-2.475 -0.72,-1.14 -2.07,-1.83 -1.35,-0.69 -3.195,-0.69 -1.98,0 -3.42,0.705 -1.425,0.69 -2.205,1.89 -0.765,1.2 -0.765,2.715 0,1.35 0.78,2.46 0.78,1.11 2.175,1.77 1.395,0.66 3.285,0.66 1.74,0 3.135,-0.675 1.395,-0.675 2.19,-1.845 0.81,-1.185 0.81,-2.685 z m -6.765,-4.68 q 1.185,-0.06 2.04,1.245 0.855,1.305 1.05,3.6 0.195,2.115 -0.39,3.375 -0.57,1.26 -1.635,1.305 -0.765,0.045 -1.425,-0.54 -0.66,-0.6 -1.095,-1.695 -0.435,-1.095 -0.57,-2.595 -0.135,-1.395 0.09,-2.445 0.24,-1.05 0.735,-1.635 0.51,-0.585 1.2,-0.615 z"
       id="path6" />
  </g>
</svg>
