<?xml version="1.0" encoding="UTF-8" standalone="no"?>
<svg
   width="249.105"
   height="179.67815"
   viewBox="0 0 249.105 179.67815"
   version="1.1"
   id="svg5"
   xmlns="http://www.w3.org/2000/svg"
   xmlns:svg="http://www.w3.org/2000/svg">
  <defs
     id="defs5" />
  <title
     id="title1">Beloved and Blooming logo</title>
  <desc
     id="desc1">A sprouting plant icon with a small blush bud above the brand name &quot;beloved &amp; blooming&quot; set in a warm serif font, on a pastel sage background.</desc>
  <path
     d="M 123.96748,125.15019 V 30.150195"
     stroke="#4a7043"
     stroke-width="3"
     stroke-linecap="round"
     fill="none"
     id="path1" />
  <path
     d="m 123.96748,85.150195 c -23.999993,-4 -34.999993,-24 -29.999993,-47 23.999993,5 35.999993,26 29.999993,47 z"
     fill="#5c8a52"
     id="path2" />
  <path
     d="m 123.96748,93.150195 c 24,-4 35,-24 30,-47 -24,5 -36,26 -30,47 z"
     fill="#4a7043"
     id="path3" />
  <circle
     cx="123.96748"
     cy="23.150194"
     fill="#e8b4b8"
     id="circle3"
     style="stroke-width:2.57224"
     r="23.150194" />
  <circle
     cx="123.96748"
     cy="23.150194"
     fill="#f7e4c7"
     id="circle4"
     style="stroke-width:3.42417"
     r="11.984577" />
  <path
     style="font-weight:600;font-size:30px;font-family:Fraunces;-inkscape-font-specification:'Fraunces Semi-Bold';text-anchor:middle;fill:#3f5c38"
     d="m 17.550007,155.08872 q 0,2.25 -1.875,3.66 -1.86,1.395 -5.46,1.395 H 0.15000654 q -0.075,0 -0.12,-0.03 -0.030000000315,-0.03 -0.030000000315,-0.06 0,-0.09 0.180000000315,-0.12 l 1.21499996,-0.18 q 0.315,-0.06 0.45,-0.195 0.135,-0.135 0.135,-0.42 v -19.185 q 0,-0.18 -0.12,-0.27 -0.105,-0.09 -0.465,-0.15 l -1.21499996,-0.18 q -0.1800000003151,-0.03 -0.1800000003151,-0.12 0,-0.03 0.030000000315,-0.06 0.045,-0.03 0.12,-0.03 H 7.4700065 q 2.8650005,0 4.8450005,0.765 1.995,0.75 3.015,2.085 1.02,1.335 1.02,3.09 0,1.47 -0.81,2.625 -0.795,1.14 -2.31,1.8 -1.5,0.645 -3.6000005,0.645 l 0.6450005,-0.09 q 2.145,0 3.78,0.66 1.65,0.645 2.565,1.785 0.93,1.125 0.93,2.58 z m -8.9400005,-4.785 h -2.91 v -0.3 h 3.105 q 1.2750005,0 2.1300005,-0.54 0.855,-0.54 1.275,-1.59 0.435,-1.05 0.435,-2.55 0,-1.77 -0.69,-3.09 -0.675,-1.335 -1.86,-2.07 -1.1850005,-0.735 -2.7000005,-0.735 h -1.305 v 19.815 q 0,0.33 0.21,0.48 0.225,0.135 0.615,0.135 h 2.265 q 1.3200005,0 2.2800005,-0.6 0.96,-0.615 1.47,-1.695 0.51,-1.095 0.51,-2.535 0,-2.175 -1.245,-3.45 -1.23,-1.275 -3.5850005,-1.275 z m 22.3799805,2.085 q 0,0.135 -0.09,0.21 -0.075,0.075 -0.255,0.075 h -9.285 v -0.255 h 5.805 q 0.255,0 0.255,-0.285 0,-2.67 -0.72,-3.945 -0.705,-1.275 -1.725,-1.275 -0.84,0 -1.455,0.585 -0.615,0.57 -0.96,1.755 -0.33,1.185 -0.33,3.015 0,3.09 1.29,4.635 1.29,1.545 3.39,1.545 1.545,0 2.61,-0.855 1.08,-0.87 1.2,-2.34 0.015,-0.06 0.045,-0.075 0.03,-0.03 0.045,-0.03 0.03,0 0.06,0.03 0.03,0.03 0.03,0.105 -0.09,1.485 -0.87,2.655 -0.765,1.155 -2.04,1.83 -1.26,0.675 -2.835,0.675 -1.86,0 -3.27,-0.825 -1.395,-0.825 -2.19,-2.31 -0.795,-1.5 -0.795,-3.495 0,-2.13 0.795,-3.735 0.81,-1.605 2.28,-2.505 1.47,-0.9 3.435,-0.9 1.695,0 2.94,0.75 1.26,0.735 1.95,2.025 0.69,1.29 0.69,2.94 z m 6.10501,-14.34 v 21.27 q 0,0.195 0.075,0.315 0.09,0.12 0.285,0.15 l 0.825,0.15 q 0.09,0 0.12,0.045 0.03,0.03 0.03,0.075 0,0.03 -0.03,0.06 -0.03,0.03 -0.09,0.03 h -6.045 q -0.045,0 -0.09,-0.03 -0.03,-0.03 -0.03,-0.06 0,-0.045 0.045,-0.075 0.045,-0.045 0.15,-0.06 l 0.81,-0.135 q 0.195,-0.03 0.27,-0.15 0.09,-0.12 0.09,-0.3 v -19.785 q 0,-0.09 -0.045,-0.135 -0.045,-0.06 -0.15,-0.06 h -0.975 q -0.075,0 -0.105,-0.03 -0.03,-0.03 -0.03,-0.075 0,-0.06 0.03,-0.075 0.045,-0.03 0.09,-0.045 l 4.305,-1.2 q 0.135,-0.03 0.18,-0.03 0.06,-0.015 0.12,-0.015 0.075,0 0.12,0.045 0.045,0.045 0.045,0.12 z m 9.30002,8.625 q 1.98,0 3.51,0.885 1.53,0.885 2.4,2.46 0.87,1.56 0.87,3.6 0,2.01 -0.9,3.555 -0.885,1.53 -2.46,2.4 -1.575,0.87 -3.6,0.87 -1.98,0 -3.51,-0.855 -1.515,-0.87 -2.385,-2.4 -0.855,-1.545 -0.855,-3.57 0,-2.025 0.885,-3.585 0.885,-1.56 2.445,-2.46 1.575,-0.9 3.6,-0.9 z m 0.735,13.515 q 0.93,-0.09 1.515,-0.9 0.6,-0.81 0.795,-2.325 0.21,-1.515 -0.045,-3.705 -0.255,-2.22 -0.795,-3.645 -0.54,-1.44 -1.32,-2.1 -0.78,-0.675 -1.755,-0.57 -0.96,0.09 -1.545,0.915 -0.585,0.825 -0.765,2.34 -0.18,1.515 0.075,3.675 0.255,2.175 0.795,3.615 0.555,1.425 1.335,2.115 0.78,0.675 1.71,0.585 z m 13.72501,-0.015 h -1.47 q -0.105,0 -0.195,-0.045 -0.075,-0.06 -0.12,-0.165 l -4.5,-11.955 q -0.09,-0.27 -0.24,-0.45 -0.135,-0.18 -0.36,-0.225 l -0.615,-0.135 q -0.105,-0.03 -0.135,-0.045 -0.045,-0.03 -0.045,-0.075 0,-0.06 0.03,-0.075 0.03,-0.03 0.075,-0.03 h 6.735 q 0.135,0 0.135,0.105 0,0.045 -0.045,0.075 -0.03,0.015 -0.12,0.045 l -0.735,0.135 q -0.75,0.15 -0.9,0.375 -0.15,0.21 0,0.645 l 3.435,9.315 -0.675,1.365 3.615,-10.275 q 0.21,-0.6 0,-0.945 -0.195,-0.36 -0.87,-0.48 l -0.795,-0.135 q -0.09,-0.03 -0.135,-0.045 -0.03,-0.03 -0.03,-0.075 0,-0.06 0.03,-0.075 0.045,-0.03 0.105,-0.03 h 3.84 q 0.06,0 0.09,0.03 0.03,0.015 0.03,0.075 0,0.045 -0.045,0.075 -0.045,0.015 -0.15,0.045 l -0.495,0.105 q -0.42,0.105 -0.69,0.42 -0.27,0.315 -0.495,0.975 l -3.975,11.28 q -0.03,0.105 -0.105,0.15 -0.075,0.045 -0.18,0.045 z m 17.85001,-7.785 q 0,0.135 -0.09,0.21 -0.075,0.075 -0.255,0.075 h -9.285 v -0.255 h 5.805 q 0.255,0 0.255,-0.285 0,-2.67 -0.72,-3.945 -0.705,-1.275 -1.725,-1.275 -0.84,0 -1.455,0.585 -0.615,0.57 -0.96,1.755 -0.33,1.185 -0.33,3.015 0,3.09 1.29,4.635 1.29,1.545 3.39,1.545 1.545,0 2.61,-0.855 1.08,-0.87 1.2,-2.34 0.015,-0.06 0.045,-0.075 0.03,-0.03 0.045,-0.03 0.03,0 0.06,0.03 0.03,0.03 0.03,0.105 -0.09,1.485 -0.87,2.655 -0.765,1.155 -2.04,1.83 -1.26,0.675 -2.835,0.675 -1.86,0 -3.27,-0.825 -1.395,-0.825 -2.19,-2.31 -0.795,-1.5 -0.795,-3.495 0,-2.13 0.795,-3.735 0.81,-1.605 2.28,-2.505 1.47,-0.9 3.435,-0.9 1.695,0 2.94,0.75 1.26,0.735 1.95,2.025 0.69,1.29 0.69,2.94 z m 10.69502,6.03 v -0.075 -18.795 q 0,-0.09 -0.045,-0.135 -0.045,-0.06 -0.15,-0.06 h -0.975 q -0.075,0 -0.105,-0.03 -0.03,-0.03 -0.03,-0.075 0,-0.06 0.03,-0.075 0.045,-0.03 0.09,-0.045 l 4.305,-1.2 q 0.135,-0.03 0.18,-0.03 0.06,-0.015 0.12,-0.015 0.075,0 0.12,0.045 0.045,0.045 0.045,0.12 v 21.27 q 0,0.195 0.075,0.315 0.09,0.12 0.285,0.15 l 0.825,0.15 q 0.09,0 0.12,0.045 0.03,0.03 0.03,0.075 0,0.03 -0.03,0.06 -0.03,0.03 -0.09,0.03 h -4.41 q -0.18,0 -0.285,-0.105 -0.105,-0.105 -0.105,-0.33 z m -9.51,-4.47 q 0,-2.25 0.84,-3.87 0.84,-1.635 2.25,-2.52 1.425,-0.885 3.15,-0.885 1.485,0 2.43,0.585 0.96,0.57 1.53,1.575 l -0.27,0.135 q -0.42,-0.84 -1.14,-1.32 -0.72,-0.495 -1.71,-0.495 -0.96,0 -1.74,0.63 -0.78,0.63 -1.245,2.055 -0.465,1.41 -0.465,3.78 0,2.085 0.39,3.42 0.405,1.335 1.095,1.98 0.705,0.645 1.605,0.645 0.75,0 1.53,-0.42 0.78,-0.42 1.5,-1.38 l 0.165,0.18 q -1.08,1.305 -2.1,1.86 -1.02,0.54 -2.28,0.54 -1.62,0 -2.88,-0.78 -1.245,-0.795 -1.95,-2.25 -0.705,-1.455 -0.705,-3.465 z m 38.204973,6.525 q 2.205,0 3.75,-0.825 1.545,-0.84 2.34,-2.46 0.81,-1.62 0.81,-3.99 0,-2.73 -0.99,-5.31 -0.975,-2.595 -2.76,-4.65 -2.025,-2.355 -4.725,-3.765 -2.685,-1.41 -5.76,-1.41 -2.955,0 -5.1,0.93 -2.145,0.93 -3.3,2.565 -1.14,1.635 -1.14,3.75 0,1.545 0.6,2.355 0.615,0.81 1.65,0.81 0.72,0 1.185,-0.48 0.465,-0.48 0.465,-1.2 0,-0.57 -0.165,-0.99 -0.15,-0.435 -0.345,-0.84 -0.18,-0.42 -0.33,-0.9 -0.15,-0.495 -0.15,-1.17 0,-1.41 0.735,-2.445 0.75,-1.035 2.22,-1.605 1.47,-0.585 3.615,-0.585 3.045,0 5.685,1.395 2.655,1.395 4.635,3.69 1.8,2.07 2.775,4.65 0.99,2.58 0.99,5.22 0,2.085 -0.585,3.465 -0.57,1.365 -1.605,2.04 -1.02,0.675 -2.415,0.675 -1.14,0 -2.1,-0.465 -0.96,-0.465 -1.95,-1.515 -0.99,-1.05 -2.25,-2.82 -0.975,-1.365 -1.635,-2.775 -0.645,-1.425 -0.975,-2.94 -0.33,-1.53 -0.33,-3.225 0,-1.785 0.63,-2.91 0.645,-1.125 1.485,-1.125 0.705,0 1.02,0.93 0.33,0.93 0.33,2.4 0,1.605 -0.465,2.7 -0.45,1.095 -1.23,1.68 -0.78,0.585 -1.755,0.675 l 0.045,0.135 q 2.01,-0.09 3.48,-0.69 1.485,-0.615 2.295,-1.71 0.81,-1.095 0.81,-2.61 0,-1.125 -0.54,-1.995 -0.54,-0.87 -1.5,-1.35 -0.945,-0.495 -2.205,-0.495 -1.83,0 -3.15,0.81 -1.32,0.81 -2.04,2.235 -0.705,1.425 -0.705,3.27 0,1.29 0.255,2.7 0.255,1.41 0.84,2.895 0.585,1.47 1.575,2.97 1.08,1.59 2.325,2.535 1.26,0.945 2.67,1.365 1.425,0.405 2.985,0.405 z m -2.13,-3 0.06,0.12 q 2.55,-1.08 3.855,-2.685 1.32,-1.62 1.32,-3.525 0,-1.215 -0.6,-1.845 -0.6,-0.63 -1.41,-0.63 -0.855,0 -1.425,0.54 -0.57,0.525 -0.57,1.23 0,0.51 0.165,0.93 0.18,0.42 0.345,0.885 0.165,0.465 0.165,1.155 0,0.495 -0.18,1.185 -0.165,0.675 -0.585,1.38 -0.42,0.69 -1.14,1.26 z m -7.935,-7.08 -0.015,-0.135 q -2.25,0.09 -3.825,0.81 -1.575,0.72 -2.385,1.95 -0.81,1.215 -0.81,2.82 0,2.1 1.395,3.375 1.395,1.26 3.93,1.26 1.56,0 2.685,-0.285 1.14,-0.27 1.98,-0.735 0.84,-0.48 1.5,-1.08 l -0.105,-0.285 q -0.57,0.45 -1.365,0.75 -0.78,0.3 -1.92,0.3 -1.95,0 -3.015,-1.185 -1.065,-1.185 -1.065,-3.33 0,-1.035 0.36,-1.965 0.36,-0.93 1.035,-1.545 0.675,-0.615 1.62,-0.72 z m 41.52002,4.695 q 0,2.25 -1.875,3.66 -1.86,1.395 -5.46,1.395 h -10.065 q -0.075,0 -0.12,-0.03 -0.03,-0.03 -0.03,-0.06 0,-0.09 0.18,-0.12 l 1.215,-0.18 q 0.315,-0.06 0.45,-0.195 0.135,-0.135 0.135,-0.42 v -19.185 q 0,-0.18 -0.12,-0.27 -0.105,-0.09 -0.465,-0.15 l -1.215,-0.18 q -0.18,-0.03 -0.18,-0.12 0,-0.03 0.03,-0.06 0.045,-0.03 0.12,-0.03 h 7.32 q 2.865,0 4.845,0.765 1.995,0.75 3.015,2.085 1.02,1.335 1.02,3.09 0,1.47 -0.81,2.625 -0.795,1.14 -2.31,1.8 -1.5,0.645 -3.6,0.645 l 0.645,-0.09 q 2.145,0 3.78,0.66 1.65,0.645 2.565,1.785 0.93,1.125 0.93,2.58 z m -8.94,-4.785 h -2.91 v -0.3 h 3.105 q 1.275,0 2.13,-0.54 0.855,-0.54 1.275,-1.59 0.435,-1.05 0.435,-2.55 0,-1.77 -0.69,-3.09 -0.675,-1.335 -1.86,-2.07 -1.185,-0.735 -2.7,-0.735 h -1.305 v 19.815 q 0,0.33 0.21,0.48 0.225,0.135 0.615,0.135 h 2.265 q 1.32,0 2.28,-0.6 0.96,-0.615 1.47,-1.695 0.51,-1.095 0.51,-2.535 0,-2.175 -1.245,-3.45 -1.23,-1.275 -3.585,-1.275 z m 15.37499,-12.255 v 21.27 q 0,0.195 0.075,0.315 0.09,0.12 0.285,0.15 l 0.825,0.15 q 0.09,0 0.12,0.045 0.03,0.03 0.03,0.075 0,0.03 -0.03,0.06 -0.03,0.03 -0.09,0.03 h -6.045 q -0.045,0 -0.09,-0.03 -0.03,-0.03 -0.03,-0.06 0,-0.045 0.045,-0.075 0.045,-0.045 0.15,-0.06 l 0.81,-0.135 q 0.195,-0.03 0.27,-0.15 0.09,-0.12 0.09,-0.3 v -19.785 q 0,-0.09 -0.045,-0.135 -0.045,-0.06 -0.15,-0.06 h -0.975 q -0.075,0 -0.105,-0.03 -0.03,-0.03 -0.03,-0.075 0,-0.06 0.03,-0.075 0.045,-0.03 0.09,-0.045 l 4.305,-1.2 q 0.135,-0.03 0.18,-0.03 0.06,-0.015 0.12,-0.015 0.075,0 0.12,0.045 0.045,0.045 0.045,0.12 z m 9.3,8.625 q 1.98,0 3.51,0.885 1.53,0.885 2.4,2.46 0.87,1.56 0.87,3.6 0,2.01 -0.9,3.555 -0.885,1.53 -2.46,2.4 -1.575,0.87 -3.6,0.87 -1.98,0 -3.51,-0.855 -1.515,-0.87 -2.385,-2.4 -0.855,-1.545 -0.855,-3.57 0,-2.025 0.885,-3.585 0.885,-1.56 2.445,-2.46 1.575,-0.9 3.6,-0.9 z m 0.735,13.515 q 0.93,-0.09 1.515,-0.9 0.6,-0.81 0.795,-2.325 0.21,-1.515 -0.045,-3.705 -0.255,-2.22 -0.795,-3.645 -0.54,-1.44 -1.32,-2.1 -0.78,-0.675 -1.755,-0.57 -0.96,0.09 -1.545,0.915 -0.585,0.825 -0.765,2.34 -0.18,1.515 0.075,3.675 0.255,2.175 0.795,3.615 0.555,1.425 1.335,2.115 0.78,0.675 1.71,0.585 z m 14.17499,-13.515 q 1.98,0 3.51,0.885 1.53,0.885 2.4,2.46 0.87,1.56 0.87,3.6 0,2.01 -0.9,3.555 -0.885,1.53 -2.46,2.4 -1.575,0.87 -3.6,0.87 -1.98,0 -3.51,-0.855 -1.515,-0.87 -2.385,-2.4 -0.855,-1.545 -0.855,-3.57 0,-2.025 0.885,-3.585 0.885,-1.56 2.445,-2.46 1.575,-0.9 3.6,-0.9 z m 0.735,13.515 q 0.93,-0.09 1.515,-0.9 0.6,-0.81 0.795,-2.325 0.21,-1.515 -0.045,-3.705 -0.255,-2.22 -0.795,-3.645 -0.54,-1.44 -1.32,-2.1 -0.78,-0.675 -1.755,-0.57 -0.96,0.09 -1.545,0.915 -0.585,0.825 -0.765,2.34 -0.18,1.515 0.075,3.675 0.255,2.175 0.795,3.615 0.555,1.425 1.335,2.115 0.78,0.675 1.71,0.585 z m 12.09,-13.29 v 12.435 q 0,0.165 0.09,0.3 0.105,0.135 0.285,0.18 l 0.825,0.12 q 0.135,0.03 0.135,0.12 0,0.09 -0.15,0.09 h -6 q -0.06,0 -0.105,-0.03 -0.03,-0.03 -0.03,-0.06 0,-0.045 0.045,-0.075 0.045,-0.03 0.12,-0.045 l 0.84,-0.15 q 0.195,-0.03 0.27,-0.135 0.09,-0.12 0.09,-0.27 v -10.965 q 0,-0.105 -0.045,-0.165 -0.03,-0.075 -0.15,-0.075 h -1.02 q -0.045,0 -0.075,-0.03 -0.03,-0.03 -0.03,-0.06 0,-0.045 0.03,-0.075 0.03,-0.03 0.105,-0.045 l 4.305,-1.215 q 0.12,-0.03 0.18,-0.03 0.06,-0.015 0.12,-0.015 0.09,0 0.12,0.06 0.045,0.06 0.045,0.135 z m -0.3,2.955 -0.15,-0.135 0.525,-0.495 q 1.515,-1.425 2.745,-1.98 1.245,-0.57 2.295,-0.57 1.47,0 2.4,0.915 0.945,0.915 0.945,2.85 v 8.925 q 0,0.195 0.105,0.315 0.105,0.12 0.3,0.15 l 0.6,0.105 q 0.15,0.03 0.15,0.12 0,0.09 -0.18,0.09 h -5.73 q -0.12,0 -0.12,-0.09 0,-0.09 0.15,-0.12 l 0.735,-0.105 q 0.285,-0.06 0.375,-0.24 0.09,-0.18 0.09,-0.435 v -8.325 q 0,-1.26 -0.615,-1.905 -0.615,-0.66 -1.575,-0.66 -0.69,0 -1.305,0.27 -0.615,0.255 -1.245,0.84 z m 8.385,0 -0.15,-0.135 0.48,-0.54 q 1.14,-1.305 2.19,-1.905 1.065,-0.6 2.19,-0.6 1.38,0 2.28,0.915 0.9,0.915 1.14,2.865 l 1.125,8.865 q 0.03,0.24 0.135,0.375 0.105,0.12 0.3,0.15 l 0.585,0.105 q 0.06,0.015 0.09,0.045 0.045,0.015 0.045,0.06 0,0.03 -0.045,0.06 -0.03,0.03 -0.09,0.03 h -5.94 q -0.12,0 -0.12,-0.09 0,-0.09 0.15,-0.12 l 0.735,-0.105 q 0.285,-0.06 0.39,-0.255 0.105,-0.195 0.075,-0.45 l -0.96,-8.295 q -0.15,-1.26 -0.66,-1.905 -0.51,-0.66 -1.41,-0.66 -0.555,0 -1.05,0.27 -0.495,0.255 -1.035,0.795 z m 15.86998,-2.97 v 12.435 q 0,0.195 0.075,0.315 0.09,0.12 0.285,0.15 l 0.825,0.15 q 0.09,0 0.12,0.045 0.03,0.03 0.03,0.075 0,0.03 -0.03,0.06 -0.03,0.03 -0.09,0.03 h -6.045 q -0.045,0 -0.09,-0.03 -0.03,-0.03 -0.03,-0.06 0,-0.045 0.03,-0.06 0.03,-0.03 0.12,-0.045 l 0.855,-0.165 q 0.195,-0.03 0.27,-0.15 0.09,-0.12 0.09,-0.3 v -10.965 q 0,-0.09 -0.045,-0.135 -0.045,-0.06 -0.15,-0.06 h -0.975 q -0.075,0 -0.105,-0.03 -0.03,-0.03 -0.03,-0.075 0,-0.045 0.03,-0.06 0.045,-0.03 0.09,-0.045 l 4.305,-1.2 q 0.135,-0.045 0.18,-0.045 0.06,-0.015 0.12,-0.015 0.075,0 0.12,0.06 0.045,0.045 0.045,0.12 z m -1.86,-2.07 q -0.945,0 -1.545,-0.63 -0.585,-0.63 -0.585,-1.53 0,-0.915 0.585,-1.545 0.6,-0.63 1.545,-0.63 0.945,0 1.545,0.63 0.615,0.63 0.615,1.545 0,0.9 -0.615,1.53 -0.6,0.63 -1.545,0.63 z m 8.98499,2.07 v 12.435 q 0,0.195 0.075,0.315 0.09,0.12 0.285,0.15 l 0.825,0.15 q 0.15,0.03 0.15,0.12 0,0.09 -0.12,0.09 h -6.045 q -0.045,0 -0.09,-0.03 -0.03,-0.03 -0.03,-0.06 0,-0.045 0.03,-0.06 0.03,-0.03 0.12,-0.045 l 0.855,-0.165 q 0.195,-0.03 0.27,-0.15 0.09,-0.12 0.09,-0.3 v -10.965 q 0,-0.09 -0.045,-0.135 -0.045,-0.06 -0.15,-0.06 h -0.975 q -0.075,0 -0.105,-0.03 -0.03,-0.03 -0.03,-0.075 0,-0.045 0.03,-0.06 0.045,-0.03 0.09,-0.045 l 4.305,-1.2 q 0.135,-0.045 0.18,-0.045 0.06,-0.015 0.12,-0.015 0.075,0 0.12,0.06 0.045,0.045 0.045,0.12 z m -0.3,2.955 -0.15,-0.15 0.54,-0.48 q 1.485,-1.335 2.565,-1.935 1.095,-0.6 2.04,-0.6 1.38,0 2.145,0.87 0.765,0.855 0.99,2.685 l 1.125,9 q 0.03,0.24 0.12,0.39 0.105,0.15 0.33,0.195 l 0.735,0.135 q 0.075,0 0.105,0.03 0.03,0.03 0.03,0.075 0,0.03 -0.03,0.06 -0.03,0.03 -0.09,0.03 h -6.15 q -0.135,0 -0.135,-0.09 0,-0.09 0.165,-0.12 l 0.855,-0.15 q 0.24,-0.03 0.33,-0.18 0.105,-0.15 0.075,-0.375 l -0.99,-8.64 q -0.15,-1.215 -0.57,-1.77 -0.42,-0.555 -1.26,-0.555 -0.555,0 -1.095,0.285 -0.54,0.27 -1.155,0.825 z m 19.70998,9.735 q -1.71,-0.42 -2.565,-0.72 -0.855,-0.3 -1.14,-0.57 -0.285,-0.27 -0.285,-0.63 0,-0.33 0.24,-0.57 0.24,-0.255 0.57,-0.36 v -0.12 q -1.35,0.225 -2.145,0.6 -0.78,0.375 -1.125,0.9 -0.345,0.51 -0.345,1.155 0,0.735 0.45,1.215 0.45,0.495 1.515,0.885 1.08,0.39 2.91,0.795 1.62,0.345 2.49,0.72 0.885,0.375 1.215,0.84 0.345,0.465 0.345,1.08 0,0.795 -0.435,1.335 -0.42,0.555 -1.275,0.825 -0.84,0.27 -2.13,0.27 -2.4,0 -3.585,-1.095 -1.185,-1.095 -1.185,-2.865 0,-0.705 0.525,-1.245 0.525,-0.525 1.56,-0.72 l -0.03,-0.165 q -2.445,0.315 -3.495,1.08 -1.035,0.78 -1.035,2.025 0,0.96 0.735,1.695 0.735,0.735 2.295,1.155 1.56,0.435 4.065,0.435 3.27,0 5.055,-1.2 1.785,-1.2 1.785,-3.09 0,-0.975 -0.435,-1.665 -0.42,-0.675 -1.515,-1.155 -1.08,-0.48 -3.03,-0.84 z m 0.18,-12.135 0.225,-0.03 q 0.315,-0.6 0.645,-0.945 0.33,-0.36 0.765,-0.36 0.33,0 0.585,0.27 0.255,0.255 0.495,0.615 0.255,0.345 0.555,0.615 0.315,0.27 0.765,0.27 0.675,0 1.02,-0.405 0.36,-0.405 0.36,-1.11 0,-0.855 -0.54,-1.41 -0.54,-0.555 -1.515,-0.555 -1.125,0 -1.89,0.78 -0.765,0.765 -1.35,2.01 z m 3.825,4.23 q 0,-1.35 -0.72,-2.475 -0.72,-1.14 -2.07,-1.83 -1.35,-0.69 -3.195,-0.69 -1.98,0 -3.42,0.705 -1.425,0.69 -2.205,1.89 -0.765,1.2 -0.765,2.715 0,1.35 0.78,2.46 0.78,1.11 2.175,1.77 1.395,0.66 3.285,0.66 1.74,0 3.135,-0.675 1.395,-0.675 2.19,-1.845 0.81,-1.185 0.81,-2.685 z m -6.765,-4.68 q 1.185,-0.06 2.04,1.245 0.855,1.305 1.05,3.6 0.195,2.115 -0.39,3.375 -0.57,1.26 -1.635,1.305 -0.765,0.045 -1.425,-0.54 -0.66,-0.6 -1.095,-1.695 -0.435,-1.095 -0.57,-2.595 -0.135,-1.395 0.09,-2.445 0.24,-1.05 0.735,-1.635 0.51,-0.585 1.2,-0.615 z"
     id="text4"
     aria-label="Beloved &amp; Blooming" />
  <path
     style="font-size:13px;font-family:Fraunces;-inkscape-font-specification:Fraunces;text-anchor:middle;fill:#6b8a63"
     d="m 66.471707,176.42815 q -0.806,-0.2405 -1.2025,-0.3965 -0.39,-0.1625 -0.52,-0.2925 -0.1235,-0.13 -0.1235,-0.286 0,-0.156 0.117,-0.273 0.1235,-0.1235 0.299,-0.195 l 0.013,-0.052 q -0.5005,0.1105 -0.7995,0.2665 -0.2925,0.1495 -0.4225,0.351 -0.1235,0.195 -0.1235,0.442 0,0.273 0.1885,0.481 0.1885,0.2015 0.6435,0.3835 0.455,0.182 1.2675,0.403 0.6695,0.169 1.0335,0.338 0.364,0.1755 0.5005,0.377 0.143,0.208 0.143,0.455 0,0.3705 -0.2015,0.624 -0.2015,0.2535 -0.6045,0.3835 -0.403,0.1365 -1.001,0.1365 -1.131,0 -1.6705,-0.455 -0.5395,-0.455 -0.5395,-1.196 0,-0.39 0.3315,-0.6825 0.338,-0.2925 0.988,-0.403 l -0.013,-0.0715 q -1.1375,0.169 -1.625,0.5395 -0.481,0.377 -0.481,0.91 0,0.416 0.312,0.7475 0.312,0.338 0.962,0.5265 0.6565,0.1885 1.6705,0.1885 1.326,0 2.054,-0.4875 0.728,-0.481 0.728,-1.2415 0,-0.377 -0.1625,-0.65 -0.1625,-0.273 -0.5785,-0.481 -0.416,-0.208 -1.183,-0.39 z m 0.052,-5.3755 h 0.0845 q 0.1495,-0.2405 0.299,-0.39 0.156,-0.1495 0.3315,-0.1495 0.13,0 0.2275,0.1105 0.0975,0.104 0.195,0.247 0.0975,0.1365 0.2145,0.2405 0.117,0.104 0.286,0.104 0.2405,0 0.364,-0.143 0.1235,-0.143 0.1235,-0.3835 0,-0.3185 -0.221,-0.5265 -0.221,-0.208 -0.585,-0.208 -0.416,0 -0.715,0.2795 -0.299,0.2795 -0.5525,0.7215 z m 1.4235,1.781 q 0,-0.585 -0.3055,-1.0725 -0.299,-0.4875 -0.845,-0.7735 -0.5395,-0.2925 -1.274,-0.2925 -0.7865,0 -1.3585,0.299 -0.572,0.299 -0.884,0.8125 -0.3055,0.507 -0.3055,1.1505 0,0.5785 0.312,1.053 0.312,0.4745 0.871,0.7605 0.559,0.2795 1.287,0.2795 0.7085,0 1.274,-0.286 0.5655,-0.286 0.897,-0.7865 0.3315,-0.5005 0.3315,-1.144 z m -2.7105,-2.015 q 0.65,-0.013 1.066,0.5785 0.416,0.5915 0.4745,1.573 0.0585,0.871 -0.2665,1.404 -0.3185,0.5265 -0.8645,0.546 -0.4095,0.006 -0.7475,-0.26 -0.3315,-0.273 -0.5395,-0.7605 -0.208,-0.4875 -0.247,-1.1245 -0.0325,-0.572 0.104,-1.0075 0.1365,-0.4355 0.403,-0.6825 0.2665,-0.2535 0.6175,-0.2665 z m 7.87151,5.447 v -0.7995 -0.026 -4.082 q 0,-0.0325 -0.0195,-0.052 -0.013,-0.0195 -0.052,-0.0195 h -0.507 q -0.026,0 -0.039,-0.013 -0.007,-0.013 -0.007,-0.026 0,-0.0195 0.013,-0.026 0.013,-0.013 0.0325,-0.0195 l 1.5665,-0.4355 q 0.0455,-0.0195 0.065,-0.0195 0.0195,0 0.039,0 0.0325,0 0.0455,0.0195 0.0195,0.0195 0.0195,0.0455 v 5.3365 q 0,0.078 0.0325,0.1235 0.039,0.0455 0.1235,0.065 l 0.4095,0.0585 q 0.039,0.007 0.0455,0.0195 0.013,0.007 0.013,0.026 0,0.0195 -0.013,0.0325 -0.006,0.007 -0.0325,0.007 h -1.5535 q -0.0845,0 -0.1365,-0.052 -0.0455,-0.052 -0.0455,-0.1625 z m -3.653,-1.3585 v -3.549 q 0,-0.0325 -0.0195,-0.052 -0.0195,-0.0195 -0.065,-0.0195 h -0.507 q -0.0195,0 -0.0325,-0.013 -0.013,-0.013 -0.013,-0.026 0,-0.0195 0.013,-0.026 0.013,-0.013 0.039,-0.0195 l 1.5665,-0.4355 q 0.052,-0.0195 0.0715,-0.0195 0.0195,0 0.039,0 0.0325,0 0.0455,0.0195 0.013,0.0195 0.013,0.0455 v 3.978 q 0,0.663 0.3055,0.9685 0.312,0.3055 0.8125,0.3055 0.312,0 0.637,-0.1365 0.325,-0.1365 0.6565,-0.442 l 0.2145,-0.195 0.052,0.0585 -0.221,0.195 q -0.6435,0.585 -1.144,0.8125 -0.494,0.221 -0.9425,0.221 -0.6565,0 -1.092,-0.4095 -0.429,-0.4095 -0.429,-1.261 z m 7.67,-4.108 v 5.3495 q 0,0.078 0.039,0.1235 0.039,0.0455 0.117,0.065 l 0.4095,0.0585 q 0.039,0.007 0.052,0.0195 0.013,0.007 0.013,0.026 0,0.0195 -0.013,0.0325 -0.013,0.007 -0.039,0.007 h -2.3335 q -0.013,0 -0.026,-0.007 -0.013,-0.013 -0.013,-0.0325 0,-0.006 0.013,-0.0195 0.013,-0.013 0.039,-0.0195 l 0.4355,-0.065 q 0.0845,-0.0195 0.117,-0.065 0.039,-0.0455 0.039,-0.117 v -4.8035 q 0,-0.0325 -0.0195,-0.052 -0.013,-0.0195 -0.0585,-0.0195 h -0.507 q -0.0195,0 -0.0325,-0.013 -0.013,-0.013 -0.013,-0.026 0,-0.026 0.013,-0.0325 0.013,-0.013 0.039,-0.0195 l 1.56,-0.4355 q 0.052,-0.013 0.0715,-0.013 0.0195,-0.007 0.039,-0.007 0.0325,0 0.0455,0.0195 0.013,0.0195 0.013,0.0455 z m -0.611,-1.1115 q -0.3185,0 -0.52,-0.2145 -0.195,-0.221 -0.195,-0.5395 0,-0.3185 0.2015,-0.533 0.208,-0.221 0.5135,-0.221 0.325,0 0.5265,0.221 0.208,0.221 0.208,0.533 0,0.3185 -0.208,0.5395 -0.208,0.2145 -0.5265,0.2145 z m 5.90851,5.993 v -0.026 -8.125 q 0,-0.0325 -0.0195,-0.052 -0.013,-0.0195 -0.0585,-0.0195 h -0.507 q -0.0195,0 -0.0325,-0.013 -0.013,-0.013 -0.013,-0.026 0,-0.0195 0.013,-0.026 0.013,-0.013 0.039,-0.0195 l 1.56,-0.4355 q 0.052,-0.0195 0.0715,-0.0195 0.0195,-0.007 0.039,-0.007 0.0325,0 0.0455,0.026 0.013,0.0195 0.013,0.0455 v 9.165 q 0,0.078 0.039,0.1235 0.039,0.0455 0.117,0.065 l 0.4095,0.0585 q 0.039,0.007 0.052,0.0195 0.013,0.007 0.013,0.026 0,0.0195 -0.013,0.0325 -0.013,0.007 -0.039,0.007 h -1.547 q -0.091,0 -0.1365,-0.052 -0.0455,-0.052 -0.0455,-0.1625 z m -4.173,-1.8785 q 0,-0.962 0.364,-1.6575 0.364,-0.6955 0.962,-1.066 0.6045,-0.3705 1.326,-0.3705 0.6565,0 1.105,0.2795 0.4485,0.2795 0.728,0.7475 l -0.104,0.0455 q -0.2145,-0.416 -0.598,-0.663 -0.377,-0.2535 -0.897,-0.2535 -0.4745,0 -0.8645,0.299 -0.39,0.299 -0.624,0.923 -0.2275,0.624 -0.2275,1.599 0,0.8775 0.2015,1.469 0.2015,0.585 0.559,0.8775 0.3575,0.2925 0.8255,0.2925 0.3445,0 0.7345,-0.1885 0.3965,-0.195 0.7605,-0.6435 l 0.0585,0.065 q -0.5135,0.5915 -0.9685,0.8255 -0.4485,0.2275 -0.9815,0.2275 -0.676,0 -1.209,-0.338 -0.533,-0.3445 -0.845,-0.975 -0.3055,-0.637 -0.3055,-1.495 z m 11.18651,-0.7475 q 0,0.0455 -0.0325,0.078 -0.0325,0.0325 -0.091,0.0325 h -4.0105 v -0.0975 h 2.8795 q 0.0975,0 0.0975,-0.1105 0,-1.079 -0.3445,-1.625 -0.3445,-0.546 -0.871,-0.546 -0.4615,0 -0.7865,0.286 -0.325,0.2795 -0.5005,0.8255 -0.1755,0.546 -0.1755,1.326 0,1.339 0.572,2.0345 0.5785,0.6955 1.4885,0.6955 0.65,0 1.1115,-0.377 0.468,-0.377 0.559,-1.027 0,-0.026 0.006,-0.0325 0.013,-0.013 0.0195,-0.013 0.0195,0 0.0325,0.013 0.013,0.007 0.007,0.0455 -0.052,0.585 -0.3705,1.053 -0.312,0.4615 -0.819,0.728 -0.5005,0.2665 -1.1245,0.2665 -0.7605,0 -1.339,-0.3445 -0.572,-0.3445 -0.8905,-0.9815 -0.3185,-0.637 -0.3185,-1.495 0,-0.897 0.3315,-1.5925 0.3315,-0.702 0.9295,-1.0985 0.598,-0.403 1.404,-0.403 0.6825,0 1.183,0.3055 0.5005,0.3055 0.7735,0.8385 0.2795,0.533 0.2795,1.2155 z m 2.834,3.445 q 0.5005,0 0.793,-0.2665 0.299,-0.2665 0.299,-0.6955 0,-0.2925 -0.1365,-0.52 -0.13,-0.234 -0.4485,-0.4225 -0.312,-0.195 -0.858,-0.3705 -0.715,-0.234 -1.1375,-0.507 -0.416,-0.2795 -0.5915,-0.6305 -0.1755,-0.351 -0.1755,-0.7995 0,-0.767 0.52,-1.183 0.52,-0.4225 1.378,-0.4225 0.39,0 0.6435,0.078 0.2535,0.078 0.3835,0.156 0.1365,0.0715 0.1755,0.0715 0.052,0 0.1885,-0.0715 0.1365,-0.078 0.2665,-0.156 0.13,-0.078 0.1625,-0.078 0.0195,0 0.039,0.013 0.0195,0.007 0.026,0.0455 l 0.3835,1.781 q 0.013,0.039 0.007,0.0715 -0.007,0.026 -0.026,0.039 -0.0195,0.006 -0.039,0 -0.013,-0.013 -0.0325,-0.0325 -0.312,-0.676 -0.637,-1.0725 -0.325,-0.403 -0.6955,-0.5785 -0.364,-0.1755 -0.7995,-0.1755 -0.546,0 -0.858,0.2795 -0.312,0.273 -0.312,0.7345 0,0.286 0.13,0.52 0.13,0.234 0.4615,0.429 0.338,0.1885 0.949,0.364 0.6565,0.195 1.053,0.468 0.403,0.2665 0.585,0.624 0.1885,0.3575 0.1885,0.7995 0,0.4875 -0.234,0.8515 -0.234,0.3575 -0.6435,0.559 -0.4095,0.2015 -0.9295,0.2015 -0.351,0 -0.611,-0.1105 -0.26,-0.104 -0.416,-0.208 -0.156,-0.1105 -0.195,-0.1105 -0.0325,0 -0.1365,0.104 -0.104,0.0975 -0.221,0.195 -0.1105,0.0975 -0.156,0.0975 -0.0195,0 -0.0455,-0.0195 -0.026,-0.0195 -0.039,-0.078 l -0.3185,-1.5535 q -0.007,-0.0585 -0.007,-0.0845 0.007,-0.0325 0.0325,-0.0455 0.013,-0.013 0.026,0 0.0195,0.013 0.026,0.0325 0.468,0.9295 0.9815,1.3065 0.5135,0.3705 1.001,0.3705 z m 6.61701,-0.3575 q 0,0.0715 0.0325,0.1105 0.039,0.039 0.1235,0.0585 l 0.767,0.0845 q 0.0325,0 0.0455,0.013 0.0195,0.013 0.0195,0.0325 0,0.039 -0.0455,0.039 h -2.743 q -0.013,0 -0.026,-0.007 -0.013,-0.013 -0.013,-0.026 0,-0.0195 0.013,-0.026 0.0195,-0.013 0.0455,-0.0195 l 0.507,-0.0845 q 0.078,-0.013 0.1105,-0.052 0.039,-0.039 0.039,-0.0845 v -4.9985 q 0,-0.0455 -0.026,-0.078 -0.0195,-0.039 -0.0715,-0.0455 l -0.7865,-0.143 q -0.0195,-0.007 -0.0325,-0.013 -0.007,-0.013 -0.007,-0.0325 0,-0.013 0.013,-0.0195 0.013,-0.013 0.026,-0.013 h 0.962 l -0.065,0.0455 v -0.1105 q 0,-0.221 -0.0845,-0.4355 -0.0845,-0.221 -0.2015,-0.455 -0.1105,-0.2405 -0.195,-0.507 -0.0845,-0.273 -0.0845,-0.5915 0,-0.7345 0.442,-1.1635 0.442,-0.4355 1.1635,-0.4355 0.4485,0 0.7475,0.156 0.3055,0.1495 0.454993,0.403 0.156,0.247 0.156,0.546 0,0.3055 -0.1495,0.4615 -0.149493,0.1495 -0.376993,0.1495 -0.234,0 -0.3965,-0.156 -0.156,-0.1625 -0.156,-0.455 v -0.494 q 0,-0.2535 -0.1235,-0.377 -0.117,-0.13 -0.377,-0.13 -0.39,0 -0.624,0.26 -0.234,0.26 -0.234,0.715 0,0.3185 0.1105,0.611 0.117,0.286 0.286,0.5525 0.1755,0.26 0.3445,0.507 0.1755,0.2405 0.286,0.468 0.117,0.2275 0.117,0.4355 v 0.104 l -0.065,-0.104 h 1.144 q 0.0325,0 0.0455,0.007 0.0195,0.007 0.0195,0.026 0,0.039 -0.039,0.0585 -0.039,0.0195 -0.0975,0.0195 h -1.001 z m 4.335483,-5.434 q 0.819,0 1.456,0.377 0.637,0.377 1.0075,1.0465 0.3705,0.6695 0.3705,1.547 0,0.871 -0.377,1.534 -0.377,0.6565 -1.027,1.027 -0.65,0.3705 -1.495,0.3705 -0.819,0 -1.456,-0.3705 -0.6305,-0.3705 -0.9945,-1.027 -0.3575,-0.663 -0.3575,-1.534 0,-0.871 0.364,-1.5405 0.364,-0.6695 1.0075,-1.0465 0.65,-0.3835 1.5015,-0.3835 z m 0.299,5.8045 q 0.481,-0.039 0.806,-0.3965 0.3315,-0.364 0.468,-1.0205 0.1365,-0.663 0.039,-1.5925 -0.0975,-0.936 -0.364,-1.5535 -0.2665,-0.6175 -0.6695,-0.9035 -0.403,-0.286 -0.9165,-0.247 -0.507,0.0455 -0.8385,0.416 -0.325,0.3705 -0.4485,1.027 -0.117,0.6565 -0.026,1.573 0.0975,0.9035 0.3705,1.5275 0.273,0.6175 0.676,0.9165 0.4095,0.2925 0.9035,0.2535 z m 4.8035,-3.146 q 0,-0.8775 0.2405,-1.469 0.247,-0.5915 0.624,-0.8905 0.3835,-0.299 0.7865,-0.299 0.4615,0 0.7085,0.2795 0.2535,0.273 0.2535,0.754 0,0.3705 -0.1755,0.559 -0.169,0.1885 -0.429,0.1885 -0.247,0 -0.377,-0.1365 -0.1235,-0.143 -0.1365,-0.429 v -0.182 q -0.007,-0.2275 -0.0975,-0.338 -0.091,-0.1105 -0.3055,-0.1105 -0.2535,0 -0.4875,0.234 -0.234,0.234 -0.39,0.702 -0.1495,0.468 -0.1495,1.1635 z m 0.065,-2.535 v 2.236 3.055 q 0,0.0715 0.039,0.1235 0.0455,0.0455 0.1235,0.065 l 0.6435,0.091 q 0.0325,0.007 0.0455,0.013 0.013,0.007 0.013,0.026 0,0.0195 -0.013,0.0325 -0.013,0.007 -0.0455,0.007 h -2.5415 q -0.026,0 -0.0455,-0.013 -0.013,-0.013 -0.013,-0.026 0,-0.0195 0.0195,-0.0325 0.0195,-0.013 0.0585,-0.0195 l 0.4095,-0.052 q 0.0845,-0.0195 0.117,-0.0585 0.039,-0.0455 0.039,-0.104 v -4.8425 q 0,-0.0325 -0.0195,-0.052 -0.013,-0.026 -0.052,-0.026 h -0.52 q -0.0195,0 -0.0325,-0.013 -0.013,-0.013 -0.013,-0.026 0,-0.0195 0.013,-0.0325 0.013,-0.013 0.0455,-0.0195 l 1.56,-0.3835 q 0.0455,-0.013 0.065,-0.013 0.026,-0.007 0.0455,-0.007 0.0325,0 0.0455,0.026 0.013,0.0195 0.013,0.0455 z m 6.82501,-3.848 v 9.165 q 0,0.078 0.039,0.1235 0.039,0.0455 0.117,0.065 l 0.4095,0.0585 q 0.065,0.007 0.065,0.0455 0,0.039 -0.052,0.039 h -2.3335 q -0.013,0 -0.026,-0.007 -0.013,-0.013 -0.013,-0.0325 0,-0.013 0.0195,-0.026 0.0195,-0.0195 0.065,-0.026 l 0.403,-0.052 q 0.0845,-0.0195 0.117,-0.065 0.039,-0.0455 0.039,-0.117 v -8.6255 q 0,-0.0325 -0.0195,-0.052 -0.013,-0.0195 -0.0585,-0.0195 h -0.507 q -0.0195,0 -0.0325,-0.013 -0.013,-0.013 -0.013,-0.026 0,-0.0195 0.013,-0.026 0.013,-0.013 0.039,-0.0195 l 1.56,-0.4355 q 0.052,-0.0195 0.0715,-0.0195 0.0195,-0.007 0.039,-0.007 0.0325,0 0.0455,0.026 0.013,0.0195 0.013,0.0455 z m -0.091,5.0115 -0.052,-0.0585 0.221,-0.2015 q 0.6175,-0.559 1.053,-0.793 0.442,-0.234 0.8515,-0.234 0.598,0 0.9295,0.3965 0.338,0.39 0.455,1.209 l 0.507,3.783 q 0.013,0.104 0.0585,0.1755 0.052,0.065 0.1625,0.078 l 0.3445,0.052 q 0.0325,0.007 0.0455,0.0195 0.013,0.007 0.013,0.0195 0,0.0195 -0.013,0.0325 -0.013,0.007 -0.039,0.007 h -2.3725 q -0.0585,0 -0.0585,-0.039 0,-0.026 0.0715,-0.0455 l 0.4225,-0.0585 q 0.117,-0.0195 0.156,-0.0845 0.0455,-0.0715 0.0325,-0.156 l -0.468,-3.666 q -0.091,-0.6305 -0.312,-0.923 -0.2145,-0.2925 -0.637,-0.2925 -0.2795,0 -0.559,0.143 -0.273,0.143 -0.598,0.442 z m 7.683,-1.287 q 0.819,0 1.456,0.377 0.637,0.377 1.0075,1.0465 0.3705,0.6695 0.3705,1.547 0,0.871 -0.377,1.534 -0.377,0.6565 -1.027,1.027 -0.65,0.3705 -1.495,0.3705 -0.819,0 -1.456,-0.3705 -0.6305,-0.3705 -0.9945,-1.027 -0.3575,-0.663 -0.3575,-1.534 0,-0.871 0.364,-1.5405 0.364,-0.6695 1.0075,-1.0465 0.65,-0.3835 1.5015,-0.3835 z m 0.299,5.8045 q 0.481,-0.039 0.806,-0.3965 0.3315,-0.364 0.468,-1.0205 0.1365,-0.663 0.039,-1.5925 -0.0975,-0.936 -0.364,-1.5535 -0.2665,-0.6175 -0.6695,-0.9035 -0.403,-0.286 -0.9165,-0.247 -0.507,0.0455 -0.8385,0.416 -0.325,0.3705 -0.4485,1.027 -0.117,0.6565 -0.026,1.573 0.0975,0.9035 0.3705,1.5275 0.273,0.6175 0.676,0.9165 0.4095,0.2925 0.9035,0.2535 z m 5.47948,-0.0325 h -0.442 q -0.0455,0 -0.0715,-0.0195 -0.026,-0.0195 -0.039,-0.065 l -1.7095,-5.2065 q -0.039,-0.1235 -0.1105,-0.169 -0.065,-0.052 -0.1885,-0.065 l -0.273,-0.0455 q -0.026,-0.007 -0.0325,-0.013 -0.013,-0.013 -0.013,-0.026 0,-0.0195 0.013,-0.026 0.013,-0.007 0.026,-0.007 h 2.4765 q 0.026,0 0.039,0.013 0.013,0.007 0.013,0.026 0,0.013 -0.013,0.0195 -0.013,0.006 -0.0455,0.0195 l -0.3575,0.052 q -0.208,0.0325 -0.26,0.1365 -0.0455,0.104 0.013,0.2925 l 1.313,4.0755 -0.2275,0.5655 1.469,-4.6735 0.091,0.065 -1.5665,4.979 q -0.013,0.0325 -0.039,0.052 -0.026,0.0195 -0.065,0.0195 z m 3.549,0 h -0.4485 q -0.039,0 -0.0715,-0.026 -0.026,-0.026 -0.039,-0.0715 l -1.677,-5.135 q -0.0455,-0.143 -0.1105,-0.208 -0.0585,-0.065 -0.1495,-0.078 l -0.2405,-0.0455 q -0.039,-0.007 -0.0585,-0.013 -0.013,-0.013 -0.013,-0.0325 0,-0.0325 0.052,-0.0325 h 2.4245 q 0.052,0 0.052,0.039 0,0.013 -0.013,0.026 -0.013,0.013 -0.0455,0.0195 l -0.429,0.0845 q -0.1885,0.039 -0.2275,0.1235 -0.039,0.078 0.007,0.2145 l 1.339,4.173 -0.2665,0.6045 1.3845,-4.407 q 0.1105,-0.338 0.0325,-0.52 -0.0715,-0.182 -0.338,-0.221 l -0.351,-0.0585 q -0.0325,-0.013 -0.0455,-0.0195 -0.013,-0.007 -0.013,-0.026 0,-0.0195 0.013,-0.026 0.013,-0.007 0.0325,-0.007 h 1.5015 q 0.0325,0 0.0455,0.013 0.013,0.007 0.013,0.026 0,0.013 -0.013,0.026 -0.013,0.013 -0.0455,0.0195 l -0.1625,0.052 q -0.182,0.0585 -0.3185,0.247 -0.1365,0.182 -0.2405,0.5005 l -1.469,4.6735 q -0.013,0.0455 -0.0455,0.065 -0.026,0.0195 -0.065,0.0195 z m 5.14802,-5.4535 -0.6045,-0.104 q -0.026,-0.013 -0.039,-0.0195 -0.013,-0.013 -0.013,-0.0325 0,-0.013 0.013,-0.0195 0.013,-0.013 0.0195,-0.013 h 0.598 q 0.0585,0 0.0845,-0.013 0.0325,-0.0195 0.052,-0.0585 l 0.9295,-1.183 q 0.0325,-0.026 0.0585,-0.039 0.026,-0.0195 0.052,-0.0195 0.026,0 0.039,0.0195 0.0195,0.013 0.0195,0.052 v 5.577 q 0,0.5005 0.195,0.7475 0.195,0.2405 0.533,0.2405 0.13,0 0.247,-0.0325 0.117,-0.039 0.2145,-0.1105 0.0975,-0.078 0.1755,-0.195 0.078,-0.1235 0.13,-0.2925 0.013,-0.0325 0.0325,-0.026 0.026,0.007 0.013,0.0455 -0.104,0.351 -0.273,0.585 -0.169,0.2275 -0.416,0.338 -0.247,0.1105 -0.585,0.1105 -0.65,0 -1.014,-0.312 -0.364,-0.312 -0.364,-0.962 v -4.16 q 0,-0.052 -0.0195,-0.0845 -0.0195,-0.0325 -0.078,-0.039 z m 0.832,-0.078 0.0325,-0.1105 h 1.8395 q 0.0325,0 0.039,0.013 0.013,0.007 0.013,0.026 0,0.0325 -0.039,0.052 -0.0325,0.0195 -0.0975,0.0195 z m 4.07551,-3.965 v 9.165 q 0,0.078 0.039,0.1235 0.039,0.0455 0.117,0.065 l 0.4095,0.0585 q 0.065,0.007 0.065,0.0455 0,0.039 -0.052,0.039 h -2.3335 q -0.013,0 -0.026,-0.007 -0.013,-0.013 -0.013,-0.0325 0,-0.013 0.0195,-0.026 0.0195,-0.0195 0.065,-0.026 l 0.403,-0.052 q 0.0845,-0.0195 0.117,-0.065 0.039,-0.0455 0.039,-0.117 v -8.6255 q 0,-0.0325 -0.0195,-0.052 -0.013,-0.0195 -0.0585,-0.0195 h -0.507 q -0.0195,0 -0.0325,-0.013 -0.013,-0.013 -0.013,-0.026 0,-0.0195 0.013,-0.026 0.013,-0.013 0.039,-0.0195 l 1.56,-0.4355 q 0.052,-0.0195 0.0715,-0.0195 0.0195,-0.007 0.039,-0.007 0.0325,0 0.0455,0.026 0.013,0.0195 0.013,0.0455 z m -0.091,5.0115 -0.052,-0.0585 0.221,-0.2015 q 0.6175,-0.559 1.053,-0.793 0.442,-0.234 0.8515,-0.234 0.598,0 0.9295,0.3965 0.338,0.39 0.455,1.209 l 0.507,3.783 q 0.013,0.104 0.0585,0.1755 0.052,0.065 0.1625,0.078 l 0.3445,0.052 q 0.0325,0.007 0.0455,0.0195 0.013,0.007 0.013,0.0195 0,0.0195 -0.013,0.0325 -0.013,0.007 -0.039,0.007 h -2.3725 q -0.0585,0 -0.0585,-0.039 0,-0.026 0.0715,-0.0455 l 0.4225,-0.0585 q 0.117,-0.0195 0.156,-0.0845 0.0455,-0.0715 0.0325,-0.156 l -0.468,-3.666 q -0.091,-0.6305 -0.312,-0.923 -0.2145,-0.2925 -0.637,-0.2925 -0.2795,0 -0.559,0.143 -0.273,0.143 -0.598,0.442 z m 9.685,1.0595 q 0,0.0455 -0.0325,0.078 -0.0325,0.0325 -0.091,0.0325 h -4.0105 v -0.0975 h 2.8795 q 0.0975,0 0.0975,-0.1105 0,-1.079 -0.3445,-1.625 -0.3445,-0.546 -0.871,-0.546 -0.4615,0 -0.7865,0.286 -0.325,0.2795 -0.5005,0.8255 -0.1755,0.546 -0.1755,1.326 0,1.339 0.572,2.0345 0.5785,0.6955 1.4885,0.6955 0.65,0 1.1115,-0.377 0.468,-0.377 0.559,-1.027 0,-0.026 0.007,-0.0325 0.013,-0.013 0.0195,-0.013 0.0195,0 0.0325,0.013 0.013,0.007 0.006,0.0455 -0.052,0.585 -0.3705,1.053 -0.312,0.4615 -0.819,0.728 -0.5005,0.2665 -1.1245,0.2665 -0.7605,0 -1.339,-0.3445 -0.572,-0.3445 -0.8905,-0.9815 -0.3185,-0.637 -0.3185,-1.495 0,-0.897 0.3315,-1.5925 0.3315,-0.702 0.9295,-1.0985 0.598,-0.403 1.404,-0.403 0.6825,0 1.183,0.3055 0.5005,0.3055 0.7735,0.8385 0.2795,0.533 0.2795,1.2155 z m 3.7375,2.3335 -0.5785,1.4755 -2.132,-5.187 q -0.156,-0.364 -0.3575,-0.5395 -0.2015,-0.182 -0.455,-0.2145 -0.052,-0.013 -0.065,-0.026 -0.013,-0.013 -0.013,-0.026 0,-0.0195 0.013,-0.026 0.013,-0.007 0.039,-0.007 h 2.613 q 0.026,0 0.039,0.013 0.013,0.007 0.013,0.026 0,0.026 -0.013,0.039 -0.013,0.007 -0.0455,0.013 l -0.52,0.0585 q -0.1495,0.0195 -0.182,0.1365 -0.0325,0.1105 0.039,0.286 z m -1.157,2.8145 0.7475,-1.898 0.078,-0.195 1.7225,-4.4395 q 0.13,-0.3315 0.0585,-0.481 -0.065,-0.1495 -0.299,-0.1885 l -0.3835,-0.0715 q -0.039,-0.006 -0.0585,-0.013 -0.013,-0.013 -0.013,-0.0325 0,-0.026 0.013,-0.0325 0.013,-0.013 0.039,-0.013 h 1.5925 q 0.0325,0 0.0455,0.013 0.013,0.007 0.013,0.026 0,0.0195 -0.013,0.0325 -0.013,0.007 -0.052,0.0195 -0.3185,0.0455 -0.5135,0.2145 -0.195,0.1625 -0.3315,0.52 l -2.587,6.604 q -0.182,0.481 -0.338,0.793 -0.1495,0.312 -0.3445,0.455 -0.195,0.1495 -0.5265,0.1495 -0.4225,0 -0.689,-0.2535 -0.26,-0.2535 -0.26,-0.6175 0,-0.2535 0.1365,-0.3965 0.1365,-0.143 0.338,-0.143 0.182,0 0.2925,0.1235 0.117,0.1235 0.1755,0.338 l 0.0455,0.221 q 0.039,0.182 0.117,0.312 0.0845,0.1365 0.2275,0.1365 0.1235,0 0.2405,-0.1365 0.117,-0.13 0.247,-0.3965 0.13,-0.26 0.2795,-0.65 z m 9.516,-1.7745 q -0.806,-0.2405 -1.2025,-0.3965 -0.39,-0.1625 -0.52,-0.2925 -0.1235,-0.13 -0.1235,-0.286 0,-0.156 0.117,-0.273 0.1235,-0.1235 0.299,-0.195 l 0.013,-0.052 q -0.5005,0.1105 -0.7995,0.2665 -0.2925,0.1495 -0.4225,0.351 -0.1235,0.195 -0.1235,0.442 0,0.273 0.1885,0.481 0.1885,0.2015 0.6435,0.3835 0.455,0.182 1.2675,0.403 0.6695,0.169 1.0335,0.338 0.364,0.1755 0.5005,0.377 0.143,0.208 0.143,0.455 0,0.3705 -0.2015,0.624 -0.2015,0.2535 -0.6045,0.3835 -0.403,0.1365 -1.001,0.1365 -1.131,0 -1.6705,-0.455 -0.5395,-0.455 -0.5395,-1.196 0,-0.39 0.3315,-0.6825 0.338,-0.2925 0.988,-0.403 l -0.013,-0.0715 q -1.1375,0.169 -1.625,0.5395 -0.481,0.377 -0.481,0.91 0,0.416 0.312,0.7475 0.312,0.338 0.962,0.5265 0.6565,0.1885 1.6705,0.1885 1.326,0 2.054,-0.4875 0.728,-0.481 0.728,-1.2415 0,-0.377 -0.1625,-0.65 -0.1625,-0.273 -0.5785,-0.481 -0.416,-0.208 -1.183,-0.39 z m 0.052,-5.3755 h 0.0845 q 0.1495,-0.2405 0.299,-0.39 0.156,-0.1495 0.3315,-0.1495 0.13,0 0.2275,0.1105 0.0975,0.104 0.195,0.247 0.0975,0.1365 0.2145,0.2405 0.117,0.104 0.286,0.104 0.2405,0 0.364,-0.143 0.1235,-0.143 0.1235,-0.3835 0,-0.3185 -0.221,-0.5265 -0.221,-0.208 -0.585,-0.208 -0.416,0 -0.715,0.2795 -0.299,0.2795 -0.5525,0.7215 z m 1.4235,1.781 q 0,-0.585 -0.3055,-1.0725 -0.299,-0.4875 -0.845,-0.7735 -0.5395,-0.2925 -1.274,-0.2925 -0.7865,0 -1.3585,0.299 -0.572,0.299 -0.884,0.8125 -0.3055,0.507 -0.3055,1.1505 0,0.5785 0.312,1.053 0.312,0.4745 0.871,0.7605 0.559,0.2795 1.287,0.2795 0.7085,0 1.274,-0.286 0.5655,-0.286 0.897,-0.7865 0.3315,-0.5005 0.3315,-1.144 z m -2.7105,-2.015 q 0.65,-0.013 1.066,0.5785 0.416,0.5915 0.4745,1.573 0.0585,0.871 -0.2665,1.404 -0.3185,0.5265 -0.8645,0.546 -0.4095,0.006 -0.7475,-0.26 -0.3315,-0.273 -0.5395,-0.7605 -0.208,-0.4875 -0.247,-1.1245 -0.0325,-0.572 0.104,-1.0075 0.1365,-0.4355 0.403,-0.6825 0.2665,-0.2535 0.6175,-0.2665 z m 5.33651,2.548 q 0,-0.8775 0.2405,-1.469 0.247,-0.5915 0.624,-0.8905 0.3835,-0.299 0.7865,-0.299 0.4615,0 0.7085,0.2795 0.2535,0.273 0.2535,0.754 0,0.3705 -0.1755,0.559 -0.169,0.1885 -0.429,0.1885 -0.247,0 -0.377,-0.1365 -0.1235,-0.143 -0.1365,-0.429 v -0.182 q -0.006,-0.2275 -0.0975,-0.338 -0.091,-0.1105 -0.3055,-0.1105 -0.2535,0 -0.4875,0.234 -0.234,0.234 -0.39,0.702 -0.1495,0.468 -0.1495,1.1635 z m 0.065,-2.535 v 2.236 3.055 q 0,0.0715 0.039,0.1235 0.0455,0.0455 0.1235,0.065 l 0.6435,0.091 q 0.0325,0.007 0.0455,0.013 0.013,0.007 0.013,0.026 0,0.0195 -0.013,0.0325 -0.013,0.007 -0.0455,0.007 h -2.5415 q -0.026,0 -0.0455,-0.013 -0.013,-0.013 -0.013,-0.026 0,-0.0195 0.0195,-0.0325 0.0195,-0.013 0.0585,-0.0195 l 0.4095,-0.052 q 0.0845,-0.0195 0.117,-0.0585 0.039,-0.0455 0.039,-0.104 v -4.8425 q 0,-0.0325 -0.0195,-0.052 -0.013,-0.026 -0.052,-0.026 h -0.52 q -0.0195,0 -0.0325,-0.013 -0.013,-0.013 -0.013,-0.026 0,-0.0195 0.013,-0.0325 0.013,-0.013 0.0455,-0.0195 l 1.56,-0.3835 q 0.0455,-0.013 0.065,-0.013 0.026,-0.007 0.0455,-0.007 0.0325,0 0.0455,0.026 0.013,0.0195 0.013,0.0455 z m 5.811,-0.1235 q 0.819,0 1.456,0.377 0.637,0.377 1.0075,1.0465 0.3705,0.6695 0.3705,1.547 0,0.871 -0.377,1.534 -0.377,0.6565 -1.027,1.027 -0.65,0.3705 -1.495,0.3705 -0.819,0 -1.456,-0.3705 -0.6305,-0.3705 -0.9945,-1.027 -0.3575,-0.663 -0.3575,-1.534 0,-0.871 0.364,-1.5405 0.364,-0.6695 1.0075,-1.0465 0.65,-0.3835 1.5015,-0.3835 z m 0.299,5.8045 q 0.481,-0.039 0.806,-0.3965 0.3315,-0.364 0.468,-1.0205 0.1365,-0.663 0.039,-1.5925 -0.0975,-0.936 -0.364,-1.5535 -0.2665,-0.6175 -0.6695,-0.9035 -0.403,-0.286 -0.9165,-0.247 -0.507,0.0455 -0.8385,0.416 -0.325,0.3705 -0.4485,1.027 -0.117,0.6565 -0.026,1.573 0.0975,0.9035 0.3705,1.5275 0.273,0.6175 0.676,0.9165 0.4095,0.2925 0.9035,0.2535 z m 5.47949,-0.0325 h -0.442 q -0.0455,0 -0.0715,-0.0195 -0.026,-0.0195 -0.039,-0.065 l -1.7095,-5.2065 q -0.039,-0.1235 -0.1105,-0.169 -0.065,-0.052 -0.1885,-0.065 l -0.273,-0.0455 q -0.026,-0.007 -0.0325,-0.013 -0.013,-0.013 -0.013,-0.026 0,-0.0195 0.013,-0.026 0.013,-0.007 0.026,-0.007 h 2.4765 q 0.026,0 0.039,0.013 0.013,0.007 0.013,0.026 0,0.013 -0.013,0.0195 -0.013,0.006 -0.0455,0.0195 l -0.3575,0.052 q -0.208,0.0325 -0.26,0.1365 -0.0455,0.104 0.013,0.2925 l 1.313,4.0755 -0.2275,0.5655 1.469,-4.6735 0.091,0.065 -1.5665,4.979 q -0.013,0.0325 -0.039,0.052 -0.026,0.0195 -0.065,0.0195 z m 3.549,0 h -0.4485 q -0.039,0 -0.0715,-0.026 -0.026,-0.026 -0.039,-0.0715 l -1.677,-5.135 q -0.0455,-0.143 -0.1105,-0.208 -0.0585,-0.065 -0.1495,-0.078 l -0.2405,-0.0455 q -0.039,-0.007 -0.0585,-0.013 -0.013,-0.013 -0.013,-0.0325 0,-0.0325 0.052,-0.0325 h 2.4245 q 0.052,0 0.052,0.039 0,0.013 -0.013,0.026 -0.013,0.013 -0.0455,0.0195 l -0.429,0.0845 q -0.1885,0.039 -0.2275,0.1235 -0.039,0.078 0.007,0.2145 l 1.339,4.173 -0.2665,0.6045 1.3845,-4.407 q 0.1105,-0.338 0.0325,-0.52 -0.0715,-0.182 -0.338,-0.221 l -0.351,-0.0585 q -0.0325,-0.013 -0.0455,-0.0195 -0.013,-0.007 -0.013,-0.026 0,-0.0195 0.013,-0.026 0.013,-0.007 0.0325,-0.007 h 1.5015 q 0.0325,0 0.0455,0.013 0.013,0.007 0.013,0.026 0,0.013 -0.013,0.026 -0.013,0.013 -0.0455,0.0195 l -0.1625,0.052 q -0.182,0.0585 -0.3185,0.247 -0.1365,0.182 -0.2405,0.5005 l -1.469,4.6735 q -0.013,0.0455 -0.0455,0.065 -0.026,0.0195 -0.065,0.0195 z"
     id="text5"
     aria-label="guides for how they grow" />
</svg>
